<svg xmlns="http://www.w3.org/2000/svg" width="688" height="200" viewBox="0 0 688 200" fill="none"><g clip-path="url(#clip0_2877_40612)"><path d="M204.51 144.189C191.31 144.189 180.81 138.879 172.51 129.749L184.24 112.839C190.78 119.499 197.69 122.589 202.39 122.589C207.09 122.589 210.04 119.589 210.04 113.829V76.9986H180.69V56.5486H236V114.439C236 133.329 223.77 144.189 204.51 144.189ZM308.51 129.259H273.61L268.42 143.079H242L278.91 56.5486H305.33L341 143.079H313.6L308.51 129.259ZM301.72 110.489L291.38 82.2186L280.76 110.489H301.72ZM385.72 115.679V143.079H360.05V116.169L328.33 56.5486H354L372.89 91.8486L391.28 56.5486H416.83L385.72 115.679ZM460.07 77.1586C448.34 77.1586 439.46 86.6686 439.46 99.3786C439.46 112.089 448.34 121.729 460.07 121.729C466.74 121.729 474.76 117.729 480.69 111.729L495.5 127.529C486.12 137.649 471.92 144.189 458.84 144.189C432.54 144.189 413.16 125.189 413.16 99.6286C413.16 74.4486 432.91 55.8086 459.7 55.8086C472.79 55.8086 486.7 61.7286 495.5 71.1086L480.7 88.6386C475.27 81.7286 467.24 77.1586 460.08 77.1586H460.07ZM595.7 99.7486C595.7 125.179 575.7 144.189 548.55 144.189C521.4 144.189 501.39 125.309 501.39 99.7486C501.39 74.1886 521.39 55.8086 548.55 55.8086C575.71 55.8086 595.7 74.4486 595.7 99.7486ZM527.7 99.8786C527.7 112.959 537.58 122.709 548.94 122.709C560.3 122.709 569.43 112.959 569.43 99.8786C569.43 86.7986 560.29 77.2886 548.94 77.2886C537.59 77.2886 527.68 86.7886 527.68 99.8786H527.7ZM627.3 56.5486L664 104.939V56.5486H687.46V143.079H665.57L628.9 94.9386V143.079H605.33V56.5486H627.3Z" fill="white"></path><path d="M116.02 38.1191L83.0499 57.1591H83.0398L17.0898 19.0791L50.0698 0.0390625L116.02 38.1191Z" fill="#156089"></path><path d="M83.0298 133.317L33.5598 161.877L0.589844 142.837L50.0498 114.277H50.0598L83.0298 133.317Z" fill="#6DAC45"></path><path d="M83.0501 57.1572V133.317L33.5601 161.877V199.997L116 152.357V38.1172L83.0501 57.1572Z" fill="#106AA4"></path><path d="M33.5601 161.88V199.96H33.5501L0.580078 180.92V142.84H0.590078L33.5601 161.88Z" fill="#156089"></path><path d="M83.0398 57.1581L83.0298 133.318L50.0598 114.278V76.1981L17.0898 57.1581V19.0781L83.0398 57.1581Z" fill="#529542"></path></g><defs><clipPath id="clip0_2877_40612"><rect width="688" height="200" fill="white"></rect></clipPath></defs></svg>